<svg width="126" height="126" viewBox="0 0 126 126" fill="none" xmlns="http://www.w3.org/2000/svg">
<path d="M18.5201 112.34L8.62317 1.33087H117.377L107.47 112.323L62.9341 124.67L18.5201 112.34Z" fill="#1572B6"/>
<path d="M63.001 115.233L98.9887 105.255L107.455 10.4068H63.001V115.233Z" fill="#33A9DC"/>
<path d="M63.001 50.6254H81.017L82.2613 36.6837H63.001V23.0688H97.1411L96.8143 26.7218L93.4674 64.2403H63.001V50.6254Z" fill="white"/>
<path d="M63.0817 85.9842L63.0216 86.0019L47.8593 81.9079L46.8897 71.0493H33.2246L35.1313 92.4269L63.0197 100.167L63.0817 100.149V85.9842Z" fill="#EBEBEB"/>
<path d="M79.8594 63.6645L78.2194 81.897L63.0344 85.996V100.161L90.9454 92.4259L91.1501 90.1254L93.5185 63.6645H79.8594Z" fill="white"/>
<path d="M63.0473 23.0688V36.6837H30.1613L29.8886 33.6243L29.2685 26.7218L28.9426 23.0688H63.0473ZM63.001 50.6274V64.2423H48.0297L47.757 61.1829L47.1358 54.2804L46.811 50.6274H63.001Z" fill="#EBEBEB"/>
</svg>
