<svg width="91" height="91" viewBox="0 0 91 91" fill="none" xmlns="http://www.w3.org/2000/svg">
<path d="M77.5359 77.5373H64.0526V56.4214C64.0526 51.3862 63.9627 44.9042 57.0399 44.9042C50.0173 44.9042 48.9427 50.3905 48.9427 56.0549V77.5359H35.4598V34.1133H48.4035V40.0474H48.5847C49.8802 37.8326 51.7521 36.0106 54.0011 34.7753C56.25 33.5401 58.7919 32.938 61.356 33.033C75.022 33.033 77.5416 42.0221 77.5416 53.7163L77.5359 77.5373ZM20.2457 28.178C15.9243 28.1787 12.4204 24.6759 12.4197 20.3545C12.419 16.033 15.9214 12.5292 20.2429 12.5285C24.5643 12.5274 28.0682 16.0302 28.0689 20.3516C28.0692 22.4269 27.2452 24.4173 25.7781 25.885C24.311 27.3527 22.321 28.1775 20.2457 28.178ZM26.9875 77.5377H13.49V34.1133H26.9872L26.9875 77.5377ZM84.2578 0.00637891H6.71479C3.04991 -0.0348555 0.0444229 2.90096 -0.000366211 6.56584V84.4323C0.043001 88.099 3.04813 91.0377 6.71444 90.9993H84.2578C87.9319 91.0448 90.9488 88.1061 90.9996 84.4323V6.5598C90.9474 2.88781 87.9302 -0.0476523 84.2578 0.000335946" fill="#0A66C2"/>
</svg>
