<svg width="256" height="52" viewBox="0 0 256 52" fill="none" xmlns="http://www.w3.org/2000/svg">
<path d="M214.771 0.0215V8.2515H197.083V51.55H188.238V8.252H170.181V0.0215H214.771ZM216.76 46.6415C217.383 46.6415 217.928 46.8655 218.389 47.3145C218.857 47.763 219.091 48.3005 219.097 48.9265C219.095 49.3372 218.981 49.7396 218.767 50.09C218.556 50.4353 218.261 50.7217 217.91 50.9225C217.563 51.1307 217.165 51.239 216.76 51.2355C216.112 51.2355 215.561 51.011 215.1 50.5625C214.639 50.1135 214.41 49.57 214.416 48.9265C214.41 48.3005 214.638 47.7632 215.1 47.3145C215.561 46.8655 216.112 46.6415 216.76 46.6415ZM41.458 51.55L8.845 11.014V51.529H0V0H11.0555L52.2585 51.1645L52.259 8.252L52.2555 0.0215H96.8455V8.2515H61.1035V21.4915H89.8475V29.722H61.1035V43.32H96.846V51.55H41.458ZM125.192 29.6435L130.989 36.85L119.112 51.611H107.504L125.192 29.6435ZM119.112 0.043L134.077 18.628L148.995 0.1L160.57 0.0825L139.872 25.825L160.603 51.5715H148.995L107.537 0.043H119.112ZM231.855 29.528H235.775V44.628C235.769 46.0155 235.469 47.202 234.882 48.2005C234.289 49.198 233.467 49.96 232.413 50.4975C231.364 51.0285 230.135 51.3005 228.739 51.3005C227.462 51.3005 226.318 51.0705 225.299 50.6215C224.28 50.1725 223.472 49.4995 222.878 48.6135C222.278 47.728 221.985 46.6235 221.985 45.301H225.911C225.917 45.8795 226.049 46.381 226.3 46.801C226.547 47.2157 226.91 47.5498 227.343 47.763C227.792 47.988 228.308 48.1003 228.889 48.1C229.519 48.1 230.057 47.97 230.495 47.704C230.932 47.444 231.268 47.0543 231.502 46.535C231.729 46.021 231.849 45.3835 231.855 44.6275V29.528ZM251.9 35.433C251.805 34.518 251.385 33.803 250.654 33.2955C249.917 32.7815 248.965 32.528 247.796 32.528C246.976 32.528 246.268 32.652 245.68 32.894C245.093 33.142 244.638 33.4725 244.326 33.892C244.015 34.311 243.859 34.7895 243.846 35.327C243.846 35.7755 243.955 36.1655 244.164 36.49C244.381 36.8304 244.675 37.1156 245.021 37.323C245.397 37.5595 245.8 37.7516 246.22 37.8955C246.663 38.0488 247.107 38.1788 247.55 38.2855L249.594 38.7875C250.415 38.9765 251.212 39.23 251.973 39.555C252.734 39.874 253.423 40.2815 254.028 40.7715C254.634 41.2615 255.113 41.852 255.467 42.543C255.82 43.234 256 44.043 256 44.976C256 46.2335 255.676 47.338 255.023 48.2945C254.37 49.2455 253.429 49.9895 252.195 50.527C250.966 51.0585 249.479 51.33 247.73 51.33C246.04 51.33 244.566 51.07 243.325 50.5505C242.079 50.037 241.108 49.2805 240.406 48.2885C239.705 47.2965 239.328 46.086 239.274 44.663H243.158C243.212 45.407 243.451 46.027 243.859 46.529C244.272 47.025 244.811 47.391 245.471 47.639C246.136 47.8815 246.879 48.0055 247.7 48.0055C248.557 48.0055 249.312 47.8755 249.965 47.6215C250.612 47.3675 251.122 47.0135 251.488 46.5525C251.859 46.0975 252.045 45.5605 252.051 44.9465C252.045 44.3855 251.876 43.919 251.553 43.5525C251.223 43.1865 250.768 42.8795 250.186 42.6315C249.6 42.3835 248.916 42.159 248.137 41.9645L245.656 41.3385C243.864 40.8835 242.445 40.193 241.408 39.2655C240.365 38.3385 239.85 37.1105 239.85 35.569C239.85 34.3055 240.197 33.195 240.898 32.244C241.593 31.294 242.547 30.5555 243.751 30.03C244.961 29.4985 246.328 29.2385 247.85 29.2385C249.396 29.2385 250.75 29.4985 251.919 30.03C253.087 30.5555 254.005 31.2875 254.669 32.2205C255.335 33.154 255.683 34.2225 255.701 35.433H251.9Z" fill="#00FF00"/>
</svg>
