<svg width="150" height="150" viewBox="0 0 150 150" fill="none" xmlns="http://www.w3.org/2000/svg">
<rect width="150" height="150" fill="black"/>
<path d="M93.568 43C93.3133 43 93.069 43.1012 92.8889 43.2813C92.7088 43.4614 92.6076 43.7057 92.6076 43.9604V61.5584L88.6187 59.231C88.3724 59.0857 88.0916 59.0091 87.8056 59.0091C87.5196 59.0091 87.2388 59.0857 86.9924 59.231L77.4075 64.8206C77.1616 64.9611 76.9573 65.1643 76.8156 65.4095C76.6738 65.6547 76.5997 65.9332 76.6007 66.2164V77.4084C76.6007 77.9847 76.9081 78.5161 77.4075 78.8042L86.9924 84.3938C87.2388 84.5391 87.5196 84.6158 87.8056 84.6158C88.0916 84.6158 88.3724 84.5391 88.6187 84.3938L98.2036 78.8042C98.4496 78.6637 98.6538 78.4605 98.7956 78.2153C98.9373 77.9701 99.0114 77.6917 99.0104 77.4084V46.9377C99.0099 46.6584 98.9364 46.3842 98.7971 46.1421C98.6578 45.9001 98.4577 45.6986 98.2165 45.5579L94.0451 43.1313C93.9012 43.0471 93.7379 43.0019 93.5713 43H93.568ZM62.1945 59.0133C61.9089 59.012 61.6282 59.0872 61.3814 59.231L51.7964 64.8206C51.5505 64.9611 51.3463 65.1643 51.2045 65.4095C51.0628 65.6547 50.9887 65.9332 50.9897 66.2164V77.4084C50.9897 77.9847 51.297 78.5161 51.7964 78.8042L61.3814 84.3938C61.884 84.682 62.5019 84.682 63.0077 84.3938L72.5926 78.8042C72.8385 78.6637 73.0428 78.4605 73.1845 78.2153C73.3263 77.9701 73.4004 77.6917 73.3994 77.4084V66.2164C73.4004 65.9332 73.3263 65.6547 73.1845 65.4095C73.0428 65.1643 72.8385 64.9611 72.5926 64.8206L63.0077 59.231C62.7609 59.0872 62.4801 59.012 62.1945 59.0133ZM113.417 59.0133C113.131 59.012 112.85 59.0872 112.603 59.231L103.019 64.8206C102.773 64.9611 102.568 65.1643 102.427 65.4095C102.285 65.6547 102.211 65.9332 102.212 66.2164V77.4084C102.212 77.9847 102.519 78.5161 103.019 78.8042L112.315 84.4226C112.561 84.5711 112.843 84.6506 113.13 84.6529C113.417 84.6551 113.7 84.58 113.948 84.4355L118.52 81.7783C118.627 81.715 118.716 81.6246 118.778 81.5163C118.84 81.4079 118.873 81.2853 118.873 81.1604C118.873 81.0356 118.84 80.913 118.778 80.8046C118.716 80.6963 118.627 80.6059 118.52 80.5426L108.615 74.7065V68.9632L113.417 66.1684L118.219 68.9632V72.9649C118.219 73.4995 118.667 73.5828 118.968 73.4035L123.827 70.5767C124.069 70.4359 124.269 70.2345 124.408 69.9925C124.547 69.7504 124.621 69.4762 124.621 69.1969V66.2196C124.622 65.9364 124.548 65.6579 124.407 65.4127C124.265 65.1675 124.061 64.9643 123.815 64.8238L114.23 59.2342C113.983 59.0904 113.702 59.0152 113.417 59.0165V59.0133ZM36.5835 59.0197C36.2979 59.0184 36.0171 59.0936 35.7703 59.2374L26.1854 64.8206C25.9407 64.9641 25.7376 65.1689 25.5962 65.4148C25.4547 65.6606 25.3797 65.9391 25.3787 66.2228V80.5106C25.3787 81.2085 26.1342 81.6407 26.736 81.2917L30.9875 78.817C31.2291 78.676 31.4296 78.4741 31.5689 78.2314C31.7082 77.9888 31.7815 77.7138 31.7814 77.434V68.9728L36.5835 66.1716L41.3856 68.9728V77.434C41.386 77.7133 41.4596 77.9876 41.5988 78.2296C41.7381 78.4717 41.9383 78.6731 42.1795 78.8138L46.4309 81.2917C46.5682 81.3717 46.7242 81.4141 46.883 81.4145C47.0419 81.4149 47.1981 81.3734 47.3358 81.2942C47.4735 81.2149 47.5879 81.1008 47.6673 80.9632C47.7468 80.8256 47.7885 80.6694 47.7883 80.5106V66.2228C47.7872 65.9391 47.7123 65.6606 47.5708 65.4148C47.4294 65.1689 47.2263 64.9641 46.9816 64.8206L37.3966 59.2374C37.1499 59.0936 36.8691 59.0184 36.5835 59.0197ZM87.8056 66.1652L92.6076 68.9664V74.6584L87.8056 77.4596L83.0035 74.6584V68.9632L87.8056 66.162V66.1652ZM113.417 68.6238L110.673 70.2245V73.4195L113.417 75.0138L116.16 73.4195V70.2245L113.417 68.6238ZM74.6991 81.4101C74.3665 81.4075 74.0388 81.4914 73.7483 81.6535L64.746 86.8589C64.4572 87.0242 64.2172 87.2628 64.0502 87.5506C63.8832 87.8384 63.7953 88.1653 63.7952 88.498V98.8897C63.7952 99.5588 64.1698 100.189 64.746 100.529L67.115 101.88C68.2515 102.44 68.6709 102.44 69.1863 102.44C70.8831 102.44 71.8499 101.425 71.8499 99.6324V89.3656C71.8517 89.3303 71.8461 89.2951 71.8337 89.2621C71.8212 89.2291 71.802 89.199 71.7774 89.1738C71.7527 89.1485 71.7231 89.1287 71.6904 89.1154C71.6577 89.1021 71.6227 89.0957 71.5874 89.0967H70.4477C70.3764 89.0967 70.308 89.125 70.2575 89.1754C70.2071 89.2259 70.1788 89.2943 70.1788 89.3656V99.6324C70.1788 100.41 69.356 101.211 68.0146 100.542L65.5496 99.1202C65.5094 99.0949 65.476 99.06 65.4526 99.0186C65.4291 98.9773 65.4163 98.9308 65.4151 98.8833V88.4916C65.4151 88.3988 65.4599 88.2899 65.5528 88.2419L74.5551 83.0525C74.5981 83.0283 74.6466 83.0157 74.6959 83.0157C74.7452 83.0157 74.7937 83.0283 74.8368 83.0525L83.8487 88.2387C83.9415 88.2899 83.9863 88.3828 83.9863 88.4916V98.8833C83.9842 98.9327 83.9707 98.981 83.9468 99.0243C83.9229 99.0676 83.8893 99.1048 83.8487 99.133L74.8368 104.342C74.7937 104.366 74.7452 104.378 74.6959 104.378C74.6466 104.378 74.5981 104.366 74.5551 104.342L72.2565 102.971C72.1924 102.939 72.0964 102.923 72.0356 102.955C71.614 103.225 71.1572 103.435 70.6782 103.58C70.5213 103.628 70.31 103.724 70.7614 103.973L73.7483 105.75C74.0403 105.909 74.3666 105.995 74.6991 106C75.0303 106.002 75.3554 105.911 75.6371 105.737L84.6426 100.529C84.9314 100.364 85.1715 100.125 85.3384 99.8371C85.5054 99.5493 85.5934 99.2224 85.5934 98.8897V88.498C85.5902 88.1659 85.5008 87.8403 85.3342 87.553C85.1676 87.2658 84.9293 87.0266 84.6426 86.8589L75.6371 81.6567C75.3504 81.4967 75.0274 81.413 74.6991 81.4134V81.4101ZM88.7436 86.2058C88.5165 86.2062 88.2918 86.2514 88.0823 86.3386C87.8727 86.4259 87.6823 86.5536 87.5221 86.7144C87.3619 86.8752 87.2349 87.0661 87.1484 87.276C87.0619 87.4859 87.0176 87.7107 87.018 87.9378C87.0184 88.1648 87.0636 88.3895 87.1508 88.5991C87.2381 88.8087 87.3658 88.999 87.5266 89.1592C87.6875 89.3195 87.8783 89.4465 88.0882 89.5329C88.2981 89.6194 88.523 89.6637 88.75 89.6633C89.2085 89.6625 89.6478 89.4795 89.9714 89.1547C90.295 88.8299 90.4764 88.3899 90.4755 87.9314C90.4747 87.4729 90.2917 87.0335 89.9669 86.7099C89.6421 86.3863 89.2021 86.205 88.7436 86.2058ZM88.7244 86.4811C89.5375 86.4811 90.197 87.1214 90.197 87.9314C90.1912 88.3201 90.0342 88.6913 89.7593 88.9663C89.4844 89.2412 89.1131 89.3982 88.7244 89.404C88.3377 89.3998 87.9686 89.2423 87.6979 88.9663C87.4272 88.6902 87.2771 88.318 87.2805 87.9314C87.2793 87.7411 87.3157 87.5525 87.3877 87.3764C87.4598 87.2003 87.566 87.0402 87.7002 86.9053C87.8344 86.7705 87.9941 86.6636 88.1698 86.5908C88.3456 86.518 88.5341 86.4807 88.7244 86.4811ZM88.0937 86.9517V88.895H88.4618V88.1202H88.8076C88.9485 88.1202 88.9805 88.1779 89.0125 88.2867C89.0125 88.3027 89.0701 88.8085 89.0861 88.9014H89.4863C89.4351 88.7328 89.4039 88.5587 89.3935 88.3828C89.3486 88.133 89.3358 87.9602 89.0701 87.9442C89.211 87.8961 89.4447 87.8225 89.4447 87.464C89.4447 86.9485 88.9965 86.9517 88.7628 86.9517H88.0937ZM88.4618 87.2623H88.7756C88.8716 87.2623 89.0573 87.2623 89.0573 87.5248C89.0573 87.6336 89.0093 87.8129 88.7564 87.8065H88.4618V87.2623ZM77.113 88.8502C74.5423 88.8502 73.0152 89.9482 73.0152 91.7538C73.0152 93.7323 74.5455 94.2605 77.0073 94.507C79.9526 94.8047 80.1831 95.2273 80.1831 95.8036C80.1831 96.8152 79.3699 97.2346 77.4683 97.2346C75.0833 97.2346 74.5615 96.6455 74.3886 95.461C74.3726 95.3329 74.2605 95.2401 74.1197 95.2401H72.948C72.9127 95.2392 72.8776 95.2456 72.8449 95.2588C72.8122 95.2721 72.7826 95.292 72.758 95.3172C72.7333 95.3425 72.7142 95.3726 72.7017 95.4056C72.6892 95.4386 72.6837 95.4738 72.6855 95.509C72.6855 97.0201 73.5114 98.8289 77.4523 98.8289C80.3432 98.8289 81.9791 97.7084 81.9791 95.7427C81.9791 93.7963 80.6665 93.2777 77.8941 92.9031C75.0897 92.5285 74.8112 92.3397 74.8112 91.6834C74.8112 91.1391 75.0417 90.4252 77.1162 90.4252C78.9666 90.4252 79.6581 90.8318 79.9398 92.0771C79.9739 92.2073 80.055 92.2746 80.1831 92.2788H81.3516C81.4305 92.2746 81.4935 92.249 81.5405 92.202C81.5917 92.1444 81.613 92.0782 81.6045 92.0035C81.4188 89.8522 79.9974 88.8502 77.113 88.8502Z" fill="white"/>
</svg>
