<svg width="100" height="100" viewBox="0 0 100 100" fill="none" xmlns="http://www.w3.org/2000/svg">
<path fill-rule="evenodd" clip-rule="evenodd" d="M20.2842 18.6927C20.9834 14.7309 22.7249 11.0272 25.3293 7.96332C27.9336 4.89943 31.3068 2.58608 35.1011 1.26155C38.8955 -0.0629748 42.974 -0.350783 46.9164 0.427773C50.8588 1.20633 54.5227 3.0231 57.5305 5.69095C57.1458 5.88946 56.7658 6.09712 56.3909 6.31376L30.5505 21.2522C30.204 21.4525 29.9166 21.7408 29.7172 22.0881C29.5179 22.4354 29.4137 22.8292 29.4153 23.2297L29.5652 56.6753L19.9482 51.1745V22.616C19.9467 21.301 20.0591 19.9883 20.2842 18.6927ZM89.5279 18.5291C92.296 23.3176 93.2091 28.958 92.0934 34.3767C91.7287 34.1419 91.3594 33.9145 90.9855 33.6948L65.1405 18.7655C64.7939 18.565 64.4005 18.4598 64.0002 18.4606C63.5999 18.4614 63.207 18.5681 62.8612 18.77L34.0104 35.6178L33.965 24.5254L58.6611 10.2507C63.8518 7.25473 70.0179 6.4438 75.8052 7.99596C81.5926 9.54812 86.5281 13.3365 89.5279 18.5291ZM34.1148 59.2802L34.0376 40.864L49.9251 31.5854L65.8897 40.7231L65.9715 59.1347L50.0885 68.4087L34.1194 59.2711L34.1148 59.2802ZM83.4526 45.5374L54.4475 28.9442L64.0145 23.357L88.7152 37.6317C92.4819 39.8134 95.5396 43.0373 97.521 46.9164C99.5024 50.7955 100.323 55.1648 99.8851 59.4995C99.4469 63.8343 97.7682 67.9503 95.0506 71.3532C92.333 74.756 88.6921 77.3011 84.5651 78.6829C84.5833 78.2525 84.5938 77.8206 84.5969 77.3872V47.5104C84.5967 47.1097 84.4908 46.7162 84.2899 46.3697C84.089 46.0232 83.8001 45.7361 83.4526 45.5374ZM70.5847 76.7735L70.4394 43.328L80.0563 48.8287V77.3872C80.0529 81.7442 78.7934 86.0075 76.429 89.6653C74.0647 93.323 70.696 96.2197 66.7275 98.0073C62.759 99.795 58.3594 100.398 54.0572 99.7431C49.7549 99.0884 45.7328 97.2042 42.474 94.3168C42.8554 94.1168 43.2338 93.9077 43.6091 93.6895L69.4495 78.7556C69.7967 78.5549 70.0845 78.2659 70.2839 77.9177C70.4833 77.5696 70.5871 77.1748 70.5847 76.7735ZM37.1343 81.2378L65.9896 64.3854L66.0396 75.4779L41.3389 89.7526C37.5685 91.9286 33.2509 92.9687 28.9045 92.7477C24.5582 92.5268 20.368 91.0543 16.8371 88.5072C13.3063 85.96 10.5849 82.4464 8.99996 78.3884C7.41498 74.3305 7.03377 69.9007 7.9021 65.6311C8.26535 65.8614 8.63616 66.0872 9.01454 66.3084L34.8549 81.2423C35.2011 81.4435 35.5943 81.5495 35.9946 81.5495C36.3949 81.5495 36.7881 81.4389 37.1343 81.2378ZM16.5519 54.4613L45.5525 71.0545L35.9855 76.6462L11.2848 62.3715C7.51806 60.1898 4.46037 56.9659 2.47897 53.0868C0.497569 49.2077 -0.323309 44.8385 0.114917 40.5037C0.553142 36.1689 2.23184 32.053 4.94941 28.6501C7.66699 25.2472 11.3079 22.7021 15.4349 21.3204C15.4167 21.7507 15.4077 22.1826 15.4077 22.616V52.4929C15.4078 52.8935 15.5137 53.287 15.7146 53.6335C15.9156 53.98 16.2044 54.2671 16.5519 54.4659V54.4613Z" fill="white"/>
</svg>
