<svg width="104" height="104" viewBox="0 0 104 104" fill="none" xmlns="http://www.w3.org/2000/svg">
<path d="M18.4169 1.30005H85.5831C95.7669 1.30005 104 9.53311 104 19.717V84.2831C104 94.467 95.7669 102.7 85.5831 102.7H18.4169C8.23306 102.7 0 94.467 0 84.2831V19.717C0 9.53311 8.23306 1.30005 18.4169 1.30005Z" fill="#001E36"/>
<path d="M37.2668 27.083C35.9668 27.083 34.6668 27.083 33.3238 27.1269C31.9799 27.1699 30.723 27.1699 29.553 27.2138C28.383 27.2569 27.2999 27.2569 26.2599 27.2999C25.263 27.343 24.5699 27.343 23.833 27.343C23.5299 27.343 23.3999 27.5161 23.3999 27.8199V72.4099C23.3999 72.7999 23.573 72.9738 23.9199 72.9738H32.3268C32.6299 72.9299 32.8468 72.6699 32.803 72.3669V58.4569C33.626 58.4569 34.233 58.4569 34.6668 58.4999C35.0999 58.543 35.793 58.543 36.833 58.543C40.3868 58.543 43.6368 58.153 46.583 57.0699C49.3999 56.0299 51.8268 54.2099 53.5599 51.783C55.2932 49.3563 56.1599 46.2797 56.1599 42.553C56.1599 40.603 55.8138 38.7399 55.1638 36.9199C54.475 35.0657 53.3961 33.3811 51.9999 31.9799C50.352 30.379 48.3684 29.165 46.193 28.4261C43.766 27.5161 40.8199 27.083 37.2668 27.083ZM38.2337 35.6183C39.7775 35.6476 41.2806 35.9173 42.683 36.4861C43.9399 36.963 44.9799 37.8299 45.7168 38.9561C46.408 40.1215 46.7537 41.4594 46.7138 42.8138C46.7138 44.7199 46.2799 46.1938 45.3699 47.2769C44.416 48.3599 43.203 49.1838 41.8168 49.5738C40.213 50.0938 38.523 50.353 36.833 50.353H34.536C34.016 50.353 33.4538 50.3099 32.8468 50.2669V35.7069C33.1499 35.663 33.7568 35.6199 34.6238 35.6638C35.4468 35.6199 36.443 35.6199 37.5699 35.6199C37.792 35.6145 38.0133 35.614 38.2337 35.6183ZM74.5768 37.8308C71.4999 37.8308 68.943 38.3069 66.9068 39.3469C65.0438 40.2138 63.4399 41.5999 62.3568 43.333C61.4038 44.9369 60.883 46.713 60.883 48.5769C60.8459 50.1099 61.1884 51.6282 61.8799 52.9969C62.6903 54.4542 63.8156 55.7125 65.1738 56.6799C67.08 57.9837 69.1486 59.0326 71.3268 59.7999C73.4499 60.623 74.8799 61.273 75.5738 61.8361C76.2668 62.3999 76.6138 62.963 76.6138 63.5699C76.6138 64.3499 76.1368 65.0869 75.4438 65.3899C74.6638 65.7799 73.4938 65.9969 71.8468 65.9969C70.1138 65.9969 68.3799 65.7799 66.733 65.3469C64.8419 64.9245 63.0289 64.2082 61.3599 63.2238C61.2299 63.1369 61.0999 63.0938 60.9699 63.1808C60.8399 63.2669 60.7968 63.4399 60.7968 63.5699V71.1099C60.7538 71.4569 60.9699 71.7599 61.2738 71.933C62.679 72.5895 64.1654 73.0559 65.6938 73.3199C67.6438 73.7099 69.593 73.883 71.586 73.883C74.706 73.883 77.3068 73.4069 79.4299 72.4969C81.3799 71.7169 83.0699 70.3738 84.283 68.6399C85.4191 66.9354 86.0086 64.925 85.973 62.8769C86.0157 61.3297 85.6734 59.796 84.9768 58.4138C84.153 56.9399 82.983 55.7269 81.553 54.8169C79.461 53.5031 77.2211 52.4411 74.8799 51.653C73.8344 51.2203 72.8078 50.7432 71.803 50.223C71.2399 49.9199 70.7199 49.5299 70.3299 49.053C70.0699 48.7061 69.8968 48.3169 69.8968 47.9269C69.8968 47.5369 70.0268 47.1038 70.243 46.7569C70.5468 46.3238 71.023 46.0199 71.586 45.8899C72.4099 45.6738 73.3199 45.543 74.186 45.5861C75.833 45.5861 77.436 45.803 79.0399 46.1499C80.5138 46.453 81.8999 46.9299 83.1999 47.6238C83.373 47.7099 83.5899 47.7099 83.9799 47.6238C84.0476 47.5736 84.1025 47.5082 84.1402 47.4328C84.1779 47.3574 84.1973 47.2742 84.1968 47.1899V40.1269C84.1968 39.953 84.153 39.7799 84.1099 39.6069C84.023 39.4338 83.8499 39.2599 83.6768 39.2169C82.4817 38.7284 81.2294 38.3934 79.9499 38.2199C78.1706 37.9609 76.3749 37.8313 74.5768 37.8308Z" fill="#31A8FF"/>
</svg>
