<svg width="104" height="104" viewBox="0 0 104 104" fill="none" xmlns="http://www.w3.org/2000/svg">
<path d="M10.7469 45.5601C7.88044 45.5601 6.09375 47.0047 5.38281 49.8672C6.45856 48.4266 7.71875 47.8961 9.14063 48.2609C9.95313 48.464 10.5438 49.0547 11.1906 49.7242C12.2476 50.7999 13.4664 52.0414 16.1298 52.0414C18.9922 52.0414 20.7789 50.5968 21.4898 47.7344C20.4141 49.1749 19.1539 49.7055 17.732 49.3407C16.9195 49.1376 16.3329 48.5469 15.6821 47.8774C14.625 46.8016 13.4063 45.5601 10.7469 45.5601ZM5.36413 52C2.49763 52 0.710938 53.4406 0 56.3062C1.07575 54.8624 2.33594 54.3359 3.75781 54.7007C4.57031 54.9039 5.161 55.4946 5.80775 56.1641C6.86481 57.2398 8.08356 58.4813 10.7469 58.4813C13.6094 58.4813 15.3961 57.0367 16.107 54.1742C15.0313 55.6148 13.7711 56.1454 12.3492 55.7765C11.5367 55.5734 10.9501 54.9867 10.2993 54.3172C9.26088 53.2374 8.04213 52 5.36413 52Z" fill="#38BDF8"/>
<path d="M32.2367 50.9844H30.3672V54.6219C30.3672 55.5961 30.9952 55.5734 32.2359 55.5133V56.9766C29.7172 57.2813 28.7235 56.589 28.7235 54.6219V50.9844H27.339V49.4195H28.7235V47.3883L30.3485 46.9032V49.4195H32.214V50.9844H32.2367ZM39.3867 49.4195H41.0117V56.9766H39.3867V55.8781C38.8156 56.6719 37.9242 57.161 36.7461 57.161C34.6929 57.161 32.9891 55.4117 32.9891 53.1773C32.9891 50.9243 34.6929 49.1977 36.7469 49.1977C37.9242 49.1977 38.8156 49.6828 39.3876 50.4766L39.3867 49.4195ZM36.9874 55.6148C38.3492 55.6148 39.3876 54.5992 39.3876 53.2001C39.3876 51.7969 38.3492 50.7813 36.9874 50.7813C35.6297 50.7813 34.5914 51.7969 34.5914 53.2001C34.6141 54.5992 35.6289 55.6148 36.9874 55.6148ZM43.732 48.2836C43.1641 48.2836 42.6977 47.7945 42.6977 47.2453C42.6977 46.6773 43.1641 46.2109 43.732 46.2109C44.3007 46.2109 44.7704 46.6773 44.7704 47.2453C44.7891 47.7945 44.2999 48.2836 43.732 48.2836ZM42.9195 56.9766V49.4203H44.5445V56.9766H42.9195ZM46.4327 56.9766V45.9477H48.0577V56.9766H46.4327ZM58.6844 49.4203H60.411L58.0336 56.9766H56.4273L54.8624 51.8798L53.2789 56.9766H51.6766L49.2992 49.4203H51.025L52.4875 54.6406L54.0719 49.4195H55.6367L57.1976 54.6406L58.6844 49.4203ZM62.4195 48.2828C61.8516 48.2828 61.3852 47.7953 61.3852 47.2453C61.3852 46.6773 61.8516 46.2109 62.4195 46.2109C62.9882 46.2109 63.4579 46.6773 63.4579 47.2453C63.4766 47.7945 63.0102 48.2828 62.4195 48.2828ZM61.607 56.9766V49.4203H63.232V56.9766H61.607ZM69.1039 49.2172C70.7891 49.2172 72.0078 50.375 72.0078 52.3234V56.9766H70.3828V52.5078C70.3828 51.3492 69.7133 50.7626 68.6977 50.7626C67.6219 50.7626 66.768 51.3906 66.768 52.9328V56.9953H65.143V49.4423H66.768V50.4164C67.2758 49.6039 68.0883 49.2172 69.1039 49.2172ZM79.768 46.3954H81.393V56.9766H79.768V55.8781C79.1992 56.6719 78.3047 57.161 77.1274 57.161C75.0734 57.161 73.3696 55.4117 73.3696 53.1773C73.3696 50.9243 75.0734 49.1977 77.1274 49.1977C78.3047 49.1977 79.1992 49.6828 79.768 50.4766V46.3954ZM77.3711 55.6148C78.7296 55.6148 79.768 54.5992 79.768 53.2001C79.768 51.7969 78.7296 50.7813 77.3711 50.7813C76.0102 50.7813 74.9718 51.7969 74.9718 53.2001C74.9718 54.5992 76.0094 55.6148 77.3711 55.6148ZM86.8546 57.1797C84.5829 57.1797 82.8563 55.4344 82.8563 53.2001C82.8563 50.9429 84.5601 49.2164 86.8546 49.2164C88.3407 49.2164 89.6196 49.9883 90.2289 51.1688L88.8257 51.9813C88.5024 51.2704 87.75 50.8227 86.8359 50.8227C85.4969 50.8227 84.5 51.8383 84.5 53.2001C84.5 54.5578 85.5156 55.5734 86.8359 55.5734C87.75 55.5734 88.4796 55.107 88.8485 54.4188L90.2476 55.2086C89.6382 56.4086 88.3407 57.1797 86.8546 57.1797ZM92.9711 51.4922C92.9711 52.8734 97.0336 52.0414 97.0336 54.8438C97.0336 56.3485 95.7133 57.1797 94.0883 57.1797C92.5835 57.1797 91.4883 56.4874 91 55.4117L92.4032 54.5992C92.6437 55.2914 93.2531 55.6977 94.0883 55.6977C94.8179 55.6977 95.3672 55.4531 95.3672 54.8438C95.3672 53.5048 91.3047 54.2531 91.3047 51.5531C91.3047 50.1313 92.5234 49.2391 94.0656 49.2391C95.3071 49.2391 96.3414 49.8071 96.8719 50.7999L95.4874 51.5751C95.2242 50.9844 94.6977 50.7211 94.0656 50.7211C93.4789 50.6984 92.9711 50.9649 92.9711 51.4922ZM99.9375 51.4922C99.9375 52.8734 104 52.0414 104 54.8438C104 56.3485 102.68 57.1797 101.055 57.1797C99.5499 57.1797 98.4547 56.4874 97.9672 55.4117L99.3696 54.5992C99.6133 55.2914 100.223 55.6977 101.055 55.6977C101.784 55.6977 102.334 55.4531 102.334 54.8438C102.334 53.5048 98.271 54.2531 98.271 51.5531C98.271 50.1313 99.4898 49.2391 101.036 49.2391C102.273 49.2391 103.308 49.8071 103.838 50.7999L102.457 51.5751C102.191 50.9844 101.664 50.7211 101.035 50.7211C100.445 50.6984 99.9375 50.9649 99.9375 51.4922Z" fill="white"/>
</svg>
