<svg width="104" height="104" viewBox="0 0 104 104" fill="none" xmlns="http://www.w3.org/2000/svg">
<path d="M52.0033 20.8016C38.1364 20.8016 29.4727 27.7323 26.0033 41.5992C31.2017 34.6678 37.2702 32.0686 44.2017 33.8016C48.1594 34.788 50.9877 37.6578 54.1199 40.8379C59.2175 46.0111 65.1179 52 78.0033 52C91.8694 52 100.534 45.0686 104.003 31.1984C98.8033 38.1333 92.7369 40.7339 85.8041 39C81.8472 38.0128 79.0222 35.1439 75.8859 31.9638C70.7915 26.7906 64.8928 20.8016 52.0033 20.8016ZM26.0033 52C12.1372 52 3.47267 58.9314 0.0032959 72.8016C5.20275 65.8667 11.2689 63.2661 18.2017 65C22.1594 65.9872 24.9877 68.8561 28.1199 72.0363C33.2175 77.2095 39.1179 83.1984 52.0033 83.1984C65.8694 83.1984 74.5339 76.2678 78.0033 62.4008C72.8033 69.3325 66.7369 71.9317 59.8041 70.1984C55.8472 69.212 53.0222 66.3423 49.8859 63.1621C44.7915 57.9889 38.8928 52 26.0033 52Z" fill="#38BDF8"/>
</svg>
