<svg width="177" height="177" viewBox="0 0 177 177" fill="none" xmlns="http://www.w3.org/2000/svg">
<rect width="177" height="177" fill="black"/>
<path d="M0 88.5V177H177V0H0V88.5ZM142.629 81.4421C146.875 82.4341 150.733 84.6586 153.719 87.8363C155.334 89.562 157.751 92.7314 157.956 93.5113C158.011 93.7436 150.323 98.8987 145.654 101.781C145.483 101.897 144.792 101.178 144.039 100.049C141.766 96.736 139.371 95.2979 135.715 95.0379C130.355 94.6895 126.898 97.4883 126.926 102.184C126.897 103.333 127.154 104.472 127.672 105.498C128.856 107.948 131.074 109.414 137.927 112.384C150.605 117.827 156.02 121.428 159.389 126.527C163.161 132.23 163.996 141.335 161.463 148.132C158.642 155.478 151.667 160.489 141.871 162.132C138.845 162.68 131.644 162.591 128.386 161.988C121.273 160.722 114.53 157.204 110.382 152.596C108.739 150.81 105.569 146.113 105.774 145.798C105.863 145.682 106.582 145.223 107.389 144.758L113.96 140.953L119.06 137.988L120.128 139.57C121.627 141.843 124.879 144.957 126.843 145.992C132.49 148.99 140.239 148.558 144.072 145.129C145.627 143.835 146.495 141.843 146.379 139.83C146.379 137.783 146.119 136.865 145.051 135.333C143.669 133.375 140.875 131.705 132.894 128.248C123.762 124.298 119.812 121.881 116.245 117.993C113.994 115.437 112.332 112.417 111.377 109.148C110.714 106.643 110.542 100.359 111.062 97.8533C112.937 89.0089 119.619 82.8747 129.21 81.0605C132.324 80.4576 139.581 80.6843 142.634 81.4366L142.629 81.4421ZM101.089 88.8485L101.144 96.0778H78.0957V161.562H61.7896V96.0778H38.7741V88.9923C38.7741 85.043 38.8626 81.7629 38.9732 81.6744C39.0617 81.5583 53.0613 81.503 70.0588 81.5306L101.001 81.6191L101.089 88.8485Z" fill="white"/>
</svg>
