<svg width="163" height="163" viewBox="0 0 163 163" fill="none" xmlns="http://www.w3.org/2000/svg">
<path d="M158.882 24.8575L85.7329 155.662C84.2213 158.363 80.3411 158.379 78.8092 155.693L4.20868 24.8728C2.53665 21.9413 5.03896 18.3948 8.36136 18.987L81.5891 32.0741C82.0564 32.1591 82.5353 32.1591 83.0026 32.0741L154.697 19.0073C158.006 18.405 160.523 21.9222 158.882 24.8575Z" fill="url(#paint0_linear_22_480)"/>
<path d="M116.469 1.82103L62.3398 12.4262C61.9077 12.5106 61.516 12.7362 61.226 13.0674C60.9361 13.3986 60.7643 13.8167 60.7378 14.2561L57.4052 70.5013C57.3873 70.8098 57.4414 71.1182 57.5633 71.4021C57.6853 71.686 57.8716 71.9376 58.1076 72.137C58.3436 72.3364 58.6227 72.4781 58.923 72.551C59.2232 72.6238 59.5363 72.6258 59.8375 72.5567L74.9099 69.0738C75.2345 68.9992 75.5726 69.0073 75.8933 69.0974C76.2139 69.1875 76.5068 69.3566 76.7451 69.5893C76.9834 69.822 77.1594 70.1109 77.2571 70.4293C77.3547 70.7477 77.3708 71.0856 77.3039 71.4118L72.8253 93.3392C72.7568 93.6767 72.7771 94.0261 72.8843 94.3534C72.9914 94.6807 73.1817 94.9745 73.4365 95.2062C73.6913 95.4379 74.0018 95.5994 74.3378 95.6751C74.6737 95.7507 75.0236 95.7378 75.353 95.6377L84.6593 92.8069C86.1021 92.3688 87.4902 93.6372 87.1871 95.1143L80.0686 129.557C79.6254 131.712 82.4907 132.886 83.6851 131.039L84.481 129.807L128.593 41.7739C129.334 40.2967 128.057 38.6157 126.441 38.929L110.924 41.9241C110.59 41.989 110.245 41.9669 109.922 41.8601C109.599 41.7532 109.309 41.5651 109.08 41.3138C108.851 41.0626 108.69 40.7566 108.613 40.4253C108.536 40.0939 108.546 39.7484 108.641 39.4218L118.765 4.32333C118.86 3.99561 118.869 3.64889 118.791 3.3166C118.713 2.98431 118.551 2.67766 118.321 2.4262C118.09 2.17474 117.798 1.98697 117.474 1.88097C117.149 1.77497 116.803 1.75433 116.469 1.82103Z" fill="url(#paint1_linear_22_480)"/>
<defs>
<linearGradient id="paint0_linear_22_480" x1="2.38537" y1="14.3129" x2="93.4283" y2="137.956" gradientUnits="userSpaceOnUse">
<stop stop-color="#41D1FF"/>
<stop offset="1" stop-color="#BD34FE"/>
</linearGradient>
<linearGradient id="paint1_linear_22_480" x1="77.3868" y1="4.69897" x2="93.856" y2="117.676" gradientUnits="userSpaceOnUse">
<stop stop-color="#FFEA83"/>
<stop offset="0.083" stop-color="#FFDD35"/>
<stop offset="1" stop-color="#FFA800"/>
</linearGradient>
</defs>
</svg>
