<svg width="138" height="138" viewBox="0 0 138 138" fill="none" xmlns="http://www.w3.org/2000/svg">
<mask id="mask0_22_473" style="mask-type:alpha" maskUnits="userSpaceOnUse" x="-1" y="0" width="139" height="138">
<path fill-rule="evenodd" clip-rule="evenodd" d="M97.8582 137.058C98.9564 137.486 100.131 137.683 101.309 137.638C102.486 137.593 103.642 137.306 104.704 136.795L133.116 123.123C134.579 122.419 135.814 121.315 136.678 119.94C137.542 118.566 138 116.975 138 115.351V22.6503C138 21.0262 137.542 19.4351 136.678 18.0599C135.814 16.6847 134.579 15.5815 133.116 14.877L104.704 1.20747C103.099 0.435 101.293 0.180666 99.5366 0.479669C97.7803 0.778671 96.1603 1.61622 94.9009 2.87641L40.5095 52.4982L16.8188 34.514C15.7499 33.703 14.431 33.2915 13.0906 33.351C11.7501 33.4104 10.4728 33.9371 9.47997 34.8396L1.88135 41.7514C1.28919 42.29 0.81596 42.9463 0.491941 43.6782C0.167921 44.4102 0.000244319 45.2017 -0.000364547 46.0021C-0.000973412 46.8026 0.165499 47.5944 0.488405 48.3268C0.81131 49.0592 1.28354 49.7162 1.87488 50.2557L22.4207 69L1.87596 87.7453C1.28494 88.2849 0.812993 88.9418 0.490288 89.6742C0.167584 90.4065 0.00121892 91.1981 0.00182772 91.9983C0.00243652 92.7986 0.170006 93.59 0.493824 94.3218C0.817642 95.0536 1.29059 95.7098 1.88243 96.2485L9.48105 103.16C10.4738 104.063 11.751 104.59 13.0914 104.65C14.4318 104.709 15.7509 104.298 16.8198 103.487L40.5106 85.5039L94.902 135.125C95.7438 135.966 96.7496 136.624 97.8582 137.058ZM103.521 37.6729L62.251 69L103.522 100.328L103.521 37.6729Z" fill="white"/>
</mask>
<g mask="url(#mask0_22_473)">
<path d="M133.117 14.8997L104.683 1.20747C103.077 0.434008 101.27 0.179136 99.5126 0.47816C97.7554 0.777184 96.1346 1.6153 94.8749 2.87641L1.79172 87.7453C1.20025 88.2846 0.72791 88.9415 0.404919 89.6738C0.0819288 90.4062 -0.0845916 91.1979 -0.0839827 91.9983C-0.0833738 92.7988 0.084351 93.5902 0.408455 94.3221C0.73256 95.054 1.2059 95.7101 1.79818 96.2485L9.40112 103.16C10.3941 104.064 11.6722 104.592 13.0136 104.651C14.355 104.711 15.6749 104.299 16.7442 103.487L128.838 18.4499C132.598 15.5972 138 18.2796 138 22.9996V22.6697C138 21.0461 137.542 19.4555 136.678 18.0808C135.814 16.706 134.58 15.6041 133.117 14.8997Z" fill="#0065A9"/>
<path d="M133.117 123.101L104.683 136.791C103.077 137.565 101.27 137.82 99.5131 137.522C97.7559 137.223 96.135 136.385 94.875 135.125L1.79184 50.2546C1.20038 49.7153 0.728032 49.0585 0.405041 48.3261C0.0820508 47.5937 -0.0844696 46.802 -0.0838606 46.0016C-0.0832517 45.2012 0.0844731 44.4097 0.408577 43.6778C0.732682 42.946 1.20602 42.2898 1.79831 41.7514L9.40124 34.8396C10.3942 33.9358 11.6724 33.4083 13.0137 33.3486C14.3551 33.289 15.675 33.7009 16.7444 34.5129L128.838 119.549C132.599 122.403 138 119.72 138 115V115.33C138 116.954 137.542 118.544 136.678 119.919C135.814 121.294 134.58 122.397 133.117 123.101Z" fill="#007ACC"/>
<path d="M104.684 136.795C103.077 137.567 101.271 137.821 99.5135 137.521C97.7564 137.222 96.1356 136.385 94.875 135.125C98.0576 138.307 103.5 136.053 103.5 131.552V6.44718C103.5 1.94601 98.0576 -0.308347 94.875 2.87536C96.1356 1.61523 97.7564 0.777723 99.5135 0.478563C101.271 0.179403 103.077 0.43336 104.684 1.20534L133.113 14.8781C134.577 15.5821 135.812 16.6852 136.677 18.0604C137.541 19.4356 138 21.027 138 22.6514V115.351C138 116.975 137.541 118.567 136.677 119.942C135.812 121.317 134.577 122.42 133.113 123.124L104.684 136.795Z" fill="#1F9CF0"/>
<path opacity="0.25" fill-rule="evenodd" clip-rule="evenodd" d="M97.7751 137.058C98.8731 137.486 100.047 137.683 101.225 137.638C102.403 137.592 103.558 137.306 104.62 136.795L133.032 123.123C134.495 122.418 135.73 121.315 136.594 119.94C137.458 118.565 137.916 116.974 137.916 115.35V22.6503C137.916 21.0262 137.458 19.4351 136.594 18.0599C135.73 16.6847 134.495 15.5815 133.032 14.877L104.62 1.20747C103.015 0.435 101.209 0.180666 99.4525 0.479669C97.6961 0.778671 96.0762 1.61622 94.8167 2.87641L40.4253 52.4982L16.7346 34.5151C15.6658 33.704 14.3468 33.2926 13.0064 33.3521C11.666 33.4115 10.3887 33.9382 9.39583 34.8407L1.79721 41.7525C1.20519 42.2912 0.732099 42.9475 0.408175 43.6794C0.0842514 44.4113 -0.0833739 45.2028 -0.0839827 46.0032C-0.0845915 46.8036 0.0818295 47.5953 0.404639 48.3278C0.727449 49.0602 1.19954 49.7172 1.79074 50.2568L22.3366 69L1.79182 87.7443C1.20047 88.2837 0.728247 88.9407 0.405342 89.6731C0.0824367 90.4056 -0.0840361 91.1973 -0.0834273 91.9978C-0.0828184 92.7983 0.0848588 93.5898 0.408878 94.3217C0.732897 95.0537 1.20612 95.7099 1.79829 96.2485L9.39691 103.16C10.3896 104.063 11.6669 104.59 13.0073 104.65C14.3477 104.709 15.6667 104.298 16.7357 103.487L40.4275 85.5028L94.8189 135.125C95.6604 135.966 96.6669 136.624 97.7751 137.058ZM103.437 37.6718L62.1668 69L103.437 100.327V37.6718Z" fill="url(#paint0_linear_22_473)"/>
</g>
<defs>
<linearGradient id="paint0_linear_22_473" x1="68.9159" y1="0.355752" x2="68.9159" y2="137.644" gradientUnits="userSpaceOnUse">
<stop stop-color="white"/>
<stop offset="1" stop-color="white" stop-opacity="0"/>
</linearGradient>
</defs>
</svg>
