<svg width="157" height="159" viewBox="0 0 157 159" fill="none" xmlns="http://www.w3.org/2000/svg">
<path d="M55.8086 158.227C70.4047 158.227 82.1797 146.452 82.1797 131.855V105.484H55.8086C41.2125 105.484 29.4375 117.259 29.4375 131.855C29.4375 146.452 41.2125 158.227 55.8086 158.227Z" fill="#0ACF83"/>
<path d="M29.4375 79.1133C29.4375 64.5172 41.2125 52.7422 55.8086 52.7422H82.1797V105.484H55.8086C41.2125 105.484 29.4375 93.7094 29.4375 79.1133Z" fill="#A259FF"/>
<path d="M29.4375 26.3711C29.4375 11.775 41.2125 0 55.8086 0H82.1797V52.7422H55.8086C41.2125 52.7422 29.4375 40.9672 29.4375 26.3711Z" fill="#F24E1E"/>
<path d="M82.1797 0H108.551C123.147 0 134.922 11.775 134.922 26.3711C134.922 40.9672 123.147 52.7422 108.551 52.7422H82.1797V0Z" fill="#FF7262"/>
<path d="M134.922 79.1133C134.922 93.7094 123.147 105.484 108.551 105.484C93.9547 105.484 82.1797 93.7094 82.1797 79.1133C82.1797 64.5172 93.9547 52.7422 108.551 52.7422C123.147 52.7422 134.922 64.5172 134.922 79.1133Z" fill="#1ABCFE"/>
</svg>
