<svg width="111" height="111" viewBox="0 0 111 111" fill="none" xmlns="http://www.w3.org/2000/svg">
<rect width="111" height="111" fill="black"/>
<path d="M56 6C27.875 6 6 28.5806 6 57.6129C6 91.4839 35.6875 106 40.375 106C43.5 106 43.5 104.387 43.5 102.774V94.7097C32.5625 97.9355 27.875 91.4839 26.3125 86.6452C26.3125 86.6452 26.3125 85.0323 23.1875 81.8064C21.625 80.1936 15.375 76.9677 21.625 76.9677C26.3125 76.9677 29.4375 83.4194 29.4375 83.4194C34.125 89.871 40.375 88.2581 43.5 86.6452C43.5 83.4194 46.625 80.1936 46.625 80.1936C34.125 78.5806 24.75 73.7419 24.75 56C24.75 49.5484 26.3125 44.7097 29.4375 41.4839C29.4375 41.4839 26.3125 35.0323 29.4375 26.9677C29.4375 26.9677 37.25 26.9677 43.5 33.4194C48.1875 30.1935 63.8125 30.1935 68.5 33.4194C74.75 26.9677 82.5625 26.9677 82.5625 26.9677C85.6875 38.2581 82.5625 41.4839 82.5625 41.4839C85.6875 44.7097 87.25 49.5484 87.25 56C87.25 73.7419 76.3125 78.5806 65.375 80.1936C66.9375 81.8064 68.5 85.0323 68.5 89.871V102.774C68.5 104.387 68.5 106 71.625 106C76.3125 106 106 91.4839 106 57.6129C106 28.5806 84.125 6 56 6Z" fill="white"/>
</svg>
