<svg width="153" height="153" viewBox="0 0 153 153" fill="none" xmlns="http://www.w3.org/2000/svg">
<path d="M28.2189 130.055L17.4755 9.5625H135.525L124.767 130.036L76.4283 143.438L28.2189 130.055Z" fill="#E44F26"/>
<path d="M76.5 133.196L115.563 122.367L124.752 19.4167H76.5V133.196Z" fill="#F1662A"/>
<path d="M76.5 64.1022H56.9447L55.5964 48.9696H76.5V34.1907H39.4453L39.7991 38.1592L43.4281 78.8811H76.5V64.1022ZM76.5 102.481L76.4331 102.5L59.976 98.0587L58.9241 86.2729H44.0879L46.1582 109.471L76.4331 117.877L76.5 117.858V102.481Z" fill="#EBEBEB"/>
<path d="M76.4474 64.1022V78.8811H94.6448L92.9331 98.0491L76.4474 102.496V117.872L106.746 109.471L106.966 106.976L110.437 68.0707L110.801 64.1022H76.4474ZM76.4474 34.1907V48.9696H112.144L112.441 45.6514L113.115 38.1592L113.469 34.1907H76.4474Z" fill="white"/>
</svg>
