<svg width="119" height="119" viewBox="0 0 119 119" fill="none" xmlns="http://www.w3.org/2000/svg">
<mask id="mask0_109_134" style="mask-type:luminance" maskUnits="userSpaceOnUse" x="0" y="0" width="119" height="119">
<path d="M59.5 119C92.3609 119 119 92.3609 119 59.5C119 26.6391 92.3609 0 59.5 0C26.6391 0 0 26.6391 0 59.5C0 92.3609 26.6391 119 59.5 119Z" fill="white"/>
</mask>
<g mask="url(#mask0_109_134)">
<path d="M59.5 119C92.3609 119 119 92.3609 119 59.5C119 26.6391 92.3609 0 59.5 0C26.6391 0 0 26.6391 0 59.5C0 92.3609 26.6391 119 59.5 119Z" fill="black"/>
<path d="M98.8415 104.138L45.7104 35.7H35.7V83.28H43.7083V45.8708L92.555 108.981C94.7559 107.508 96.8561 105.89 98.8415 104.138Z" fill="url(#paint0_linear_109_134)"/>
<path d="M76.028 35.7H83.9614V83.3H76.028V35.7Z" fill="url(#paint1_linear_109_134)"/>
</g>
<defs>
<linearGradient id="paint0_linear_109_134" x1="3548.46" y1="4167.64" x2="5657.01" y2="6781.09" gradientUnits="userSpaceOnUse">
<stop stop-color="white"/>
<stop offset="1" stop-color="white" stop-opacity="0"/>
</linearGradient>
<linearGradient id="paint1_linear_109_134" x1="472.702" y1="35.7" x2="459.28" y2="3531.3" gradientUnits="userSpaceOnUse">
<stop stop-color="white"/>
<stop offset="1" stop-color="white" stop-opacity="0"/>
</linearGradient>
</defs>
</svg>
