<svg width="195" height="195" viewBox="0 0 195 195" fill="none" xmlns="http://www.w3.org/2000/svg">
<path d="M97.5 73.125C142.862 73.125 170.625 88.9078 170.625 97.5C170.625 106.092 142.862 121.875 97.5 121.875C52.1381 121.875 24.375 106.092 24.375 97.5C24.375 88.9078 52.1381 73.125 97.5 73.125ZM97.5 60.9375C50.3831 60.9375 12.1875 77.3053 12.1875 97.5C12.1875 117.695 50.3831 134.062 97.5 134.062C144.617 134.062 182.812 117.695 182.812 97.5C182.812 77.3053 144.617 60.9375 97.5 60.9375Z" fill="#00BCD4"/>
<path d="M97.5 85.3125C95.0895 85.3125 92.7332 86.0273 90.729 87.3665C88.7248 88.7056 87.1627 90.6091 86.2402 92.836C85.3178 95.063 85.0764 97.5135 85.5467 99.8777C86.0169 102.242 87.1777 104.413 88.8821 106.118C90.5866 107.822 92.7582 108.983 95.1223 109.453C97.4865 109.924 99.937 109.682 102.164 108.76C104.391 107.837 106.294 106.275 107.634 104.271C108.973 102.267 109.688 99.9105 109.688 97.5C109.688 94.2677 108.403 91.1677 106.118 88.8821C103.832 86.5965 100.732 85.3125 97.5 85.3125Z" fill="#00BCD4"/>
<path d="M63.7285 33.5583C76.0196 33.5583 99.9071 52.9181 118.609 85.3125C141.29 124.599 141.503 156.53 134.063 160.826C133.204 161.271 132.243 161.482 131.278 161.436C118.987 161.436 95.093 142.082 76.3913 109.688C53.7104 70.4011 53.4971 38.4699 60.9375 34.1738C61.7977 33.7277 62.7607 33.5113 63.7285 33.5583ZM63.7224 21.3769C60.6168 21.3207 57.5522 22.0926 54.8438 23.6133C37.3547 33.7106 42.2785 74.9775 65.8369 115.781C85.8488 150.455 112.881 173.629 131.284 173.629C134.388 173.681 137.451 172.905 140.156 171.381C157.645 161.289 152.722 120.023 129.163 79.2188C109.151 44.5453 82.1194 21.3708 63.7163 21.3708L63.7224 21.3769Z" fill="#00BCD4"/>
<path d="M131.278 33.5583C132.243 33.5124 133.204 33.7226 134.063 34.1677C141.503 38.4698 141.29 70.4011 118.609 109.688C99.901 142.082 76.0135 161.442 63.7224 161.442C62.7566 161.488 61.7959 161.277 60.9375 160.832C53.497 156.524 53.7103 124.593 76.3913 85.3125C95.0991 52.9181 118.987 33.5583 131.278 33.5583ZM131.278 21.3708C112.875 21.3708 85.8488 44.5514 65.8308 79.2188C42.2845 120.022 37.3547 161.289 54.8438 171.381C57.551 172.906 60.6156 173.682 63.7224 173.629C82.1255 173.629 109.151 150.449 129.169 115.781C152.715 74.9775 157.645 33.7106 140.156 23.6194C137.449 22.0944 134.384 21.3183 131.278 21.3708Z" fill="#00BCD4"/>
</svg>
